<svg xmlns="http://www.w3.org/2000/svg" viewBox="0 0 1631.83 1010.19"><defs><style>.cls-1{fill:#287bff;}</style></defs><g id="Layer_2" data-name="Layer 2"><g id="back"><path class="cls-1" d="M116.66,0c410.82,12.18,552.76,102.66,603,188,13.45,22.85,26,54.91,63,85,92.58,75.23,189.25,16.93,308,91,54.09,33.74,32.25,44.73,94,85,91,59.36,140.44,36.76,238,98,48.09,30.19,85,53.35,103,99,21,53.25-5.72,81.1,24,142,12.92,26.49,22.77,31,51,82,21.8,39.37,32.7,59,31,68-11.64,61-383.76,37.66-491,32-709.76-37.48-865,117.26-1017-13C-113.48,753.79,51.8,195,116.66,0Z"/></g></g></svg>